<?xml version="1.0" encoding="UTF-8"?>
<svg xmlns="http://www.w3.org/2000/svg" fill="currentColor" viewBox="0 0 1142 216">
  <defs>
    <style>
      .cls-1 {
        fill: #fff;
      }
    </style>
  </defs>

  <path class="cls-1" d="M3.639 3.639h38.583v85.643l22.507-22.507h46.475l32.445 32.445v113.119h-38.583V109.743l-9.938-10.23H69.99l-27.768 28.061v84.766H3.639z"/>
  <path class="cls-1" d="M43.85 2.012v83.341l20.205-20.205h47.824l33.398 33.398v115.421h-41.838V110.403l-8.999-9.263H70.67l-26.82 27.102v85.725H2.012V2.012zM5.267 5.267v205.445h35.328v-83.808l28.717-29.019h26.505l10.878 11.198v101.629h35.328V99.895l-31.492-31.492H65.404l-22.03 22.03-2.778-1.151V5.267H5.268Z"/>
  <path class="cls-1" d="M149.496 185.448v-33.322l26.891-26.891h73.951V106.82l-9.061-9.061h-43.845l-8.769 9.061v8.184h-37.999V98.343l31.276-31.568h75.12l31.276 31.568v113.996h-34.783v-20.753l-21.63 20.753h-55.536zm79.797-2.923 21.045-20.169v-9.646h-54.952l-7.892 7.892v14.615l7.307 7.307h34.491Z"/>
  <path class="cls-1" d="m147.868 151.452 27.845-27.845h72.998v-16.113l-8.108-8.108h-42.48l-7.831 8.092v9.153h-41.254V97.673l32.225-32.526h76.478l32.225 32.526v116.293h-38.039v-18.563l-19.348 18.563h-56.865l-27.845-27.845v-34.67Zm3.255 33.322 25.938 25.938h54.208l21.158-20.3 2.754 1.174v19.125h31.528V99.012l-30.327-30.61h-73.763l-30.327 30.61v14.364h34.743v-7.215l9.707-10.03h45.209l10.015 10.015v20.717h-74.905l-25.938 25.938zm43.004-.621-8.261-8.261v-15.963l8.845-8.845h57.254v11.968l-22.019 21.102h-35.819Zm34.511-3.255 20.072-19.235v-7.324h-52.65l-6.939 6.939v13.266l6.354 6.354z"/>
  <path class="cls-1" d="M295.644 66.776h35.66v24.261l23.384-24.261h41.506v32.737H362.58l-28.353 29.23v83.597h-38.583z"/>
  <path class="cls-1" d="M332.932 65.148v21.854l21.064-21.854h43.826v35.992h-34.553l-27.414 28.262v84.565h-41.838V65.148zm-35.66 3.255v142.309H332.6v-82.629l29.292-30.198h32.675V68.403H355.38l-22.904 23.763-2.799-1.13V68.403z"/>
  <path class="cls-1" d="M399.118 181.941V97.175l30.107-30.399H487.1l17.246 14.907V3.64h38.583v208.7h-36.245v-22.507l-22.507 22.507h-54.952zm81.551-2.338 23.676-24.261v-37.999l-19.876-17.83h-35.66l-11.107 11.4v57.29l11.107 11.4z"/>
  <path class="cls-1" d="m397.49 96.505 31.055-31.357h59.16l15.012 12.976V2.011h41.838v211.955h-39.5v-20.205l-20.205 20.205h-56.305l-31.055-31.357zm3.255 84.766 29.158 29.441h53.599l22.03-22.03 2.778 1.151v20.879h32.99V5.267h-35.328v76.416l-2.692 1.231-16.787-14.511h-56.59l-29.158 29.441zm47.376-.041-12.048-12.365v-58.614l12.048-12.365h36.97l20.881 18.731v39.388l-24.618 25.226h-33.233Zm31.861-3.255 22.734-23.296v-36.61l-18.872-16.929h-34.351l-10.166 10.434v55.967l10.166 10.434h30.488Z"/>
  <path class="cls-1" d="M548.774 66.776h39.168l16.661 91.781h1.169l26.307-91.781h35.076l24.261 91.781h1.169L711 66.776h39.168L712.462 212.34h-35.953l-26.891-98.212h-1.169l-28.645 98.212h-35.953z"/>
  <path class="cls-1" d="m605.412 153.904 25.44-88.756h37.556l23.455 88.733 17.803-88.733h42.604l-38.55 148.819h-38.454l-26.265-95.925-27.978 95.925h-38.455l-35.86-148.819h42.593l16.112 88.756Zm44.195-39.019.402-.302-.31 1.063 1.486-1.948 26.563 97.014h33.451l36.863-142.309h-35.731l-18.415 91.781h-3.756l-24.261-91.781h-32.596l-26.307 91.781h-3.755L586.58 68.403h-35.743l34.291 142.309h33.45l27.696-94.957 2.197-3.255h1.11l.024 2.385Z"/>
  <path class="cls-1" d="M745.782 185.448v-33.322l26.891-26.891h73.951V106.82l-9.061-9.061h-43.845l-8.769 9.061v8.184H746.95V98.343l31.276-31.568h75.12l31.276 31.568v113.996h-34.783v-20.753l-21.63 20.753h-55.536zm79.797-2.923 21.045-20.169v-9.646h-54.952l-7.892 7.892v14.615l7.307 7.307h34.491Z"/>
  <path class="cls-1" d="m744.154 151.452 27.845-27.845h72.998v-16.113l-8.108-8.108h-42.48l-7.831 8.092v9.153h-41.254V97.673l32.225-32.526h76.478l32.225 32.526v116.293h-38.039v-18.563l-19.348 18.563H772l-27.845-27.845zm3.255 33.322 25.938 25.938h54.208l21.158-20.3 2.754 1.174v19.125h31.528V99.012l-30.327-30.61h-73.763l-30.327 30.61v14.364h34.743v-7.215l9.707-10.03h45.209l10.015 10.015v20.717h-74.905l-25.938 25.938zm43.004-.621-8.261-8.261v-15.963l8.845-8.845h57.254v11.968l-22.019 21.102h-35.819Zm34.511-3.255 20.072-19.235v-7.324h-52.65l-6.939 6.939v13.266l6.354 6.354z"/>
  <path class="cls-1" d="M891.931 66.776h35.66v24.261l23.384-24.261h41.506v32.737h-33.614l-28.353 29.23v83.597h-38.583z"/>
  <path class="cls-1" d="M929.219 65.148v21.854l21.064-21.854h43.826v35.992h-34.553l-27.414 28.262v84.565h-41.838V65.148zm-35.66 3.255v142.309h35.328v-82.629l29.292-30.198h32.675V68.403h-39.187l-22.904 23.763-2.799-1.13V68.403z"/>
  <path class="cls-1" d="M995.404 182.525V97.174l30.107-30.399h82.136l30.399 30.399v55.244h-104.058v18.707l9.354 9.646h47.644l8.769-9.061v-7.6h37.999v18.999l-28.937 29.23h-83.889l-29.522-29.814Zm104.058-56.998v-16.953l-9.938-10.23h-45.598l-9.938 10.23v16.953z"/>
  <path class="cls-1" d="m993.776 96.505 31.055-31.357h83.488l31.352 31.352v57.546h-104.058v16.42l8.415 8.678h46.266l7.831-8.092v-8.569h41.254v21.296l-29.886 30.188h-85.247l-30.471-30.772v-86.69Zm3.255 85.351 28.573 28.856h82.531l27.989-28.271v-16.702h-34.743v6.631l-9.707 10.03h-49.023l-10.292-10.614v-20.994h104.058V97.85l-29.446-29.445h-80.783L997.03 97.846v84.012Zm35.328-54.701v-19.241l10.878-11.198h46.974l10.878 11.198v19.241zm65.475-3.255v-14.665l-8.999-9.263h-44.222l-8.999 9.263V123.9h62.219Z"/>
</svg>
